<svg width="23" height="24" viewBox="0 0 23 24" fill="none" xmlns="http://www.w3.org/2000/svg">
<path d="M1.39379 9.40052C1.16206 9.59046 1.02771 9.8743 1.02771 10.1739V22.1328C1.02771 22.685 1.47543 23.1328 2.02771 23.1328H7.34935C7.90163 23.1328 8.34935 22.685 8.34935 22.1328V16.1634C8.34935 15.6112 8.79706 15.1634 9.34935 15.1634H13.9134C14.4657 15.1634 14.9134 15.6112 14.9134 16.1634V22.1328C14.9134 22.685 15.3611 23.1328 15.9134 23.1328H21.3945C21.9468 23.1328 22.3945 22.685 22.3945 22.1328V10.191C22.3945 9.88164 22.2514 9.58972 22.0068 9.40033L12.0379 1.68024C11.6693 1.39477 11.1523 1.40192 10.7917 1.69748L1.39379 9.40052Z" stroke="#A8A8A8" stroke-linecap="round" stroke-linejoin="round"/>
</svg>
